<?xml version="1.0" encoding="UTF-8" standalone="no"?>
<!-- Created with Inkscape (http://www.inkscape.org/) -->

<svg
   xmlns:dc="http://purl.org/dc/elements/1.1/"
   xmlns:cc="http://creativecommons.org/ns#"
   xmlns:rdf="http://www.w3.org/1999/02/22-rdf-syntax-ns#"
   xmlns:svg="http://www.w3.org/2000/svg"
   xmlns="http://www.w3.org/2000/svg"
   xmlns:sodipodi="http://sodipodi.sourceforge.net/DTD/sodipodi-0.dtd"
   xmlns:inkscape="http://www.inkscape.org/namespaces/inkscape"
   width="32.987087mm"
   height="29.649254mm"
   viewBox="0 0 32.987087 29.649254"
   version="1.1"
   id="svg8"
   inkscape:version="0.92.3 (2405546, 2018-03-11)"
   sodipodi:docname="ccf.svg">
  <defs
     id="defs2" />
  <sodipodi:namedview
     id="base"
     pagecolor="#ffffff"
     bordercolor="#666666"
     borderopacity="1.0"
     inkscape:pageopacity="0.0"
     inkscape:pageshadow="2"
     inkscape:zoom="1.4"
     inkscape:cx="-12.438798"
     inkscape:cy="-161.77692"
     inkscape:document-units="mm"
     inkscape:current-layer="layer1"
     showgrid="false"
     inkscape:window-width="1920"
     inkscape:window-height="987"
     inkscape:window-x="1920"
     inkscape:window-y="0"
     inkscape:window-maximized="1" />
  <metadata
     id="metadata5">
    <rdf:RDF>
      <cc:Work
         rdf:about="">
        <dc:format>image/svg+xml</dc:format>
        <dc:type
           rdf:resource="http://purl.org/dc/dcmitype/StillImage" />
        <dc:title></dc:title>
      </cc:Work>
    </rdf:RDF>
  </metadata>
  <g
     inkscape:label="Calque 1"
     inkscape:groupmode="layer"
     id="layer1"
     transform="translate(-0.32653924,-0.36743403)">
    <path
       style="fill:#ffffff;stroke-width:0.35277775"
       d="m 13.448326,29.650945 c -0.262612,-0.424914 1.362681,-2.119623 2.032802,-2.119623 1.429918,0 3.226771,-3.220806 4.903115,-8.788687 1.45514,-4.833166 1.468444,-4.799125 -1.358604,-3.476189 -1.586307,0.742322 -2.926934,1.111592 -4.095164,1.127993 -1.55292,0.0218 -1.841503,-0.100973 -2.7257,-1.159619 L 11.215879,14.050818 8.9797999,15.145949 C 4.8231371,17.181697 1.8719406,16.976796 0.7313901,14.573265 -1.3850189,10.113264 5.2193131,1.425767 10.726265,1.425767 c 2.11038,0 3.048101,1.633172 1.433781,2.49713 -0.615545,0.32943 -0.816915,0.298739 -1.075863,-0.163976 -1.083125,-1.935437 -5.6121469,1.419001 -7.5667549,5.604346 -0.895628,1.917782 -1.078217,4.021045 -0.407317,4.691944 0.809908,0.809908 3.7402108,0.492681 6.1727028,-0.66824 1.8672291,-0.891146 2.3852331,-1.328375 2.8211731,-2.38125 1.258479,-3.039462 5.377766,-6.312603 7.541104,-5.99208 1.07922,0.159899 1.676393,1.164459 1.170124,1.968376 -0.524976,0.833622 -1.583544,0.9951 -1.972078,0.300828 -0.44929,-0.802836 -0.791417,-0.715506 -2.264742,0.578091 -3.314748,2.910387 -3.439751,7.404479 -0.188991,6.794633 1.533695,-0.287723 5.037645,-2.024589 5.703869,-2.827339 0.429528,-0.51755 0.382938,-0.675545 -0.373886,-1.26792 C 20.872886,9.897742 20.869132,9.872652 21.539619,9.358856 21.916252,9.07024 22.44029,8.8341 22.704147,8.8341 c 0.263858,0 0.728446,-0.595312 1.032419,-1.322916 1.471608,-3.522522 5.571611,-7.14374997 8.088249,-7.14374997 2.302782,0 1.810104,1.53933797 -0.624316,1.95062997 -0.902433,0.152466 -1.930702,0.692651 -2.7813,1.461116 -1.531888,1.383969 -3.06994,4.222404 -2.562787,4.729557 0.201508,0.201508 1.372226,0.148591 3.04283,-0.137535 1.493421,-0.255781 2.715311,-0.355079 2.715311,-0.220663 0,0.554963 -1.107086,1.077673 -3.671702,1.733592 -3.231334,0.826436 -3.251728,0.837325 -3.474381,1.855173 -1.182257,5.404639 -4.822422,14.454003 -6.542454,16.264385 -1.616608,1.701525 -3.920362,2.549032 -4.47769,1.647256 z"
       id="path828"
       inkscape:connector-curvature="0" />
  </g>
</svg>
